# xmcd
#
# Track frame offsets: 
#        150
#        23977
#        41361
#        72063
#        96670
#        112330
#        135124
#        152659
#        164296
#        187488
#        207040
#        224372
#        255736
#        279011
#        300683
#        321947
#
# Disc length: 4441 seconds
#
# Revision: 0
# Processed by: cddbd v1.5PL3 Copyright (c) Steve Scherf et al.
# Submitted via: ExactAudioCopy v0.95a4
#
DISCID=e7115710
DTITLE=EGAN - Kanta Onenak
DYEAR=1900
DGENRE=Rock
TTITLE0=Musikari
TTITLE1=Zakilixut
TTITLE2=Potpourri
TTITLE3=Gau txori
TTITLE4=Loiolan
TTITLE5=Burutikan
TTITLE6=Gizon arlotea
TTITLE7=Bateginik
TTITLE8=Libre
TTITLE9=Mexikon lo ez
TTITLE10=Maitasun hitzak
TTITLE11=Denok dantzara
TTITLE12=Potpourri Karibe
TTITLE13=Zergaitik
TTITLE14=Potpourri bals
TTITLE15=Gimnasia ariketak
EXTD=
EXTT0=
EXTT1=
EXTT2=
EXTT3=
EXTT4=
EXTT5=
EXTT6=
EXTT7=
EXTT8=
EXTT9=
EXTT10=
EXTT11=
EXTT12=
EXTT13=
EXTT14=
EXTT15=
PLAYORDER=
